<svg width="77" height="15" viewBox="0 0 77 15" fill="none" xmlns="http://www.w3.org/2000/svg">
<g clip-path="url(#clip0_0_132)">
<path d="M10.8819 2.36V10.824C10.7379 10.344 10.5779 9.864 10.4019 9.448L7.40988 2.36H2.78588V13H5.47388V4.552C5.61788 5.064 5.77788 5.576 5.98588 6.056L8.94588 13H13.5699V2.36H10.8819ZM19.3049 11.416C18.2809 11.416 17.6569 10.984 17.4969 9.704H23.4969C23.5289 9.528 23.5449 9.288 23.5449 9.032C23.5449 6.808 22.5049 4.744 19.2409 4.744C16.1689 4.744 14.8249 6.664 14.8249 8.984C14.8249 11.176 15.9769 13.256 19.2409 13.256C22.1529 13.256 23.2409 11.96 23.5129 10.584H20.8409C20.6169 11.064 20.1209 11.416 19.3049 11.416ZM19.2729 6.552C20.3449 6.552 20.8409 7.096 20.9369 8.104H17.5289C17.7049 6.952 18.2809 6.552 19.2729 6.552ZM35.7191 5L34.4391 10.92L32.6631 5H29.7671L27.9911 10.904L26.6631 5H23.8951L25.8471 13H29.6711L31.0951 7.736L32.5031 13H36.3111L38.2791 5H35.7191ZM38.7895 10.424C38.8535 11.896 39.9415 13.256 42.8695 13.256C45.8455 13.256 46.7895 12.056 46.7895 10.536C46.7895 9 46.0055 8.232 44.1175 8.04L42.4695 7.88C41.7175 7.8 41.5255 7.496 41.5255 7.16C41.5255 6.712 41.8775 6.376 42.8055 6.376C43.6855 6.376 44.1175 6.744 44.1975 7.368H46.6935C46.5335 5.496 44.9975 4.744 42.7895 4.744C40.6455 4.744 39.0135 5.512 39.0135 7.416C39.0135 8.808 39.8455 9.64 41.3975 9.816L43.0935 10.008C44.0215 10.12 44.1655 10.456 44.1655 10.856C44.1655 11.32 43.8135 11.608 42.9175 11.608C41.8935 11.608 41.3495 11.08 41.2855 10.424H38.7895ZM56.4991 13H57.2031L52.9951 2.36H52.0511L47.8431 13H48.5311L49.7631 9.896H55.2671L56.4991 13ZM49.9871 9.32L52.5151 2.92L55.0431 9.32H49.9871ZM62.3994 4.76C60.8794 4.76 59.7914 5.496 59.2474 6.808V5H58.6074V16.2H59.2474V11.224C59.7914 12.536 60.8794 13.272 62.3994 13.272C64.7674 13.272 65.9194 11.688 65.9194 9.016C65.9194 6.376 64.7674 4.76 62.3994 4.76ZM62.3034 12.712C60.5754 12.712 59.2474 11.656 59.2474 9C59.2474 6.344 60.5754 5.32 62.3034 5.32C64.1914 5.32 65.2474 6.52 65.2474 9.016C65.2474 11.512 64.1914 12.712 62.3034 12.712ZM71.6806 4.76C70.1606 4.76 69.0726 5.496 68.5286 6.808V5H67.8886V16.2H68.5286V11.224C69.0726 12.536 70.1606 13.272 71.6806 13.272C74.0486 13.272 75.2006 11.688 75.2006 9.016C75.2006 6.376 74.0486 4.76 71.6806 4.76ZM71.5846 12.712C69.8566 12.712 68.5286 11.656 68.5286 9C68.5286 6.344 69.8566 5.32 71.5846 5.32C73.4726 5.32 74.5286 6.52 74.5286 9.016C74.5286 11.512 73.4726 12.712 71.5846 12.712Z" fill="#22252A"/>
</g>
<defs>
<clipPath id="clip0_0_132">
<rect width="76" height="15" fill="white" transform="translate(0.5)"/>
</clipPath>
</defs>
</svg>
